<?xml version="1.0" encoding="utf-8"?>
<!-- Generator: Adobe Illustrator 16.0.0, SVG Export Plug-In . SVG Version: 6.00 Build 0)  -->
<!DOCTYPE svg PUBLIC "-//W3C//DTD SVG 1.1//EN" "http://www.w3.org/Graphics/SVG/1.1/DTD/svg11.dtd">
<svg version="1.1" xmlns="http://www.w3.org/2000/svg" x="0px" y="0px" width="32px"
     height="32px" viewBox="0 0 32 32" enable-background="new 0 0 32 32" xml:space="preserve">
<g id="Layer_1">
	
		<polyline fill="none" stroke="#52A6AF" stroke-width="3" stroke-linecap="round" stroke-linejoin="round" stroke-miterlimit="10" points="
		26,26 6,26.033 6,6 	"/>
	
		<polyline fill="none" stroke="#68C9CE" stroke-width="3" stroke-linecap="round" stroke-linejoin="round" stroke-miterlimit="10" points="
		10.999,21.616 17,15.616 20,18.616 26,12.616 	"/>
</g>
<g id="Layer_2" display="none">
	<g display="inline">
		<path d="M12.5,19.616v4h-4v-4H12.5 M13.5,18.616h-6v6h6V18.616L13.5,18.616z"/>
	</g>
	<g display="inline">
		<path d="M21,13.033v4h-4v-4H21 M22,12.033h-6v6h6V12.033L22,12.033z"/>
	</g>
	<g display="inline">
		<path d="M27,19.033v4h-4v-4H27 M28,18.033h-6v6h6V18.033L28,18.033z"/>
	</g>
	<g display="inline">
		<path d="M27,7.033v4h-4v-4H27 M28,6.033h-6v6h6V6.033L28,6.033z"/>
	</g>
</g>
</svg>
