<?xml version="1.0" encoding="utf-8"?>
<!-- Generator: Adobe Illustrator 16.0.0, SVG Export Plug-In . SVG Version: 6.00 Build 0)  -->
<!DOCTYPE svg PUBLIC "-//W3C//DTD SVG 1.1 Tiny//EN" "http://www.w3.org/Graphics/SVG/1.1/DTD/svg11-tiny.dtd">
<svg version="1.1" baseProfile="tiny" id="Layer_1" xmlns="http://www.w3.org/2000/svg" xmlns:xlink="http://www.w3.org/1999/xlink"
	 x="0px" y="0px" width="32px" height="32px" viewBox="0 0 32 32" xml:space="preserve">
<path d="M18,5c0-1.106-0.895-2-2-2c-1.106,0-2,0.894-2,2v9H5c-1.106,0-2,0.894-2,2c0,1.105,0.894,2,2,2h9v9c0,1.105,0.894,2,2,2
	c1.105,0,2-0.895,2-2v-9h9c1.105,0,2-0.895,2-2c0-1.106-0.895-2-2-2h-9V5z"/>
</svg>
