<?xml version="1.0" encoding="utf-8"?>
<!-- Generator: Adobe Illustrator 16.0.0, SVG Export Plug-In . SVG Version: 6.00 Build 0)  -->
<!DOCTYPE svg PUBLIC "-//W3C//DTD SVG 1.1 Tiny//EN" "http://www.w3.org/Graphics/SVG/1.1/DTD/svg11-tiny.dtd">
<svg version="1.1" baseProfile="tiny" id="Layer_1" xmlns="http://www.w3.org/2000/svg" xmlns:xlink="http://www.w3.org/1999/xlink"
	 x="0px" y="0px" width="32px" height="32px" viewBox="0 0 32 32" xml:space="preserve">
<path d="M25.412,22.588c0.781,0.781,0.781,2.047,0,2.828C25.025,25.807,24.514,26,24,26s-1.023-0.195-1.414-0.586L16,18.831
	l-6.585,6.581C9.024,25.807,8.512,26,8,26s-1.023-0.193-1.414-0.588c-0.781-0.781-0.781-2.047,0-2.828l6.587-6.587L6.586,9.413
	c-0.781-0.781-0.781-2.047,0-2.828c0.781-0.781,2.047-0.781,2.828,0L16,13.175l6.588-6.587c0.781-0.781,2.047-0.781,2.828,0
	c0.781,0.781,0.781,2.047,0,2.828l-6.588,6.587L25.412,22.588z"/>
</svg>
